<svg width="76" height="74" viewBox="0 0 76 74" fill="none" xmlns="http://www.w3.org/2000/svg"><path d="M38.783 62.798c-.505-.114-.996-.273-1.49-.418l-.37-.113c-.483-.148-.96-.303-1.436-.467l-.197-.071c-.426-.15-.847-.308-1.265-.47l-.355-.14c-.459-.18-.915-.37-1.366-.567l-.272-.12c-.388-.177-.77-.354-1.153-.537l-.333-.16c-.3-.146-.596-.3-.891-.453-.198-.105-.4-.203-.595-.311a35.027 35.027 0 01-1.068-.6l-.36-.201c-.47-.276-.934-.562-1.392-.852l-.375-.25a35.254 35.254 0 01-.99-.659l-.32-.224a56.893 56.893 0 01-.935-.676l-.415-.314a40.977 40.977 0 01-.844-.66l-.376-.302a51.742 51.742 0 01-1.052-.886l-.115-.097a49.419 49.419 0 01-1.105-1.005l-.312-.3a34.326 34.326 0 01-.794-.779l-.311-.31c-.331-.34-.656-.683-.976-1.031l-.047-.052a40.162 40.162 0 01-.99-1.125l-.258-.307c-.24-.29-.479-.583-.712-.88l-.26-.325a47.53 47.53 0 01-.822-1.094C6.818 35.93 4.155 21.985 10.08 10.532l-5.254 6.663c-6.728 9.67-5.89 22.254-.75 32.53.121.247.25.489.376.731l.24.463.15.267.268.48c.16.28.323.56.491.84l.28.462c.185.3.375.595.57.89l.242.375c.267.4.542.799.825 1.19l.024.03.139.189c.244.337.497.67.752 1l.282.36c.228.286.459.57.695.853l.265.318c.316.372.64.742.968 1.105l.02.02.037.042c.321.35.65.693.984 1.036l.315.318c.258.26.52.515.785.77l.321.305c.354.334.712.66 1.077.98l.017.014.187.16c.32.278.648.554.978.825l.405.323c.27.216.541.428.815.637l.436.331c.302.223.607.442.914.656l.333.236.092.065c.291.201.59.395.888.588l.384.256c.457.29.922.575 1.39.852l.385.216c.344.2.692.394 1.044.585.19.103.385.2.577.298.248.13.494.262.747.388l.173.084.305.147c.392.187.786.37 1.184.548l.25.112c.456.2.916.391 1.38.574l.337.132c.43.166.865.33 1.303.483l.163.057c.48.168.965.323 1.453.475l.35.105c.497.15.988.328 1.5.423 32.542 5.934 41.995-19.556 41.995-19.556-7.94 10.344-22.032 13.072-35.384 10.035zM27.061 36.423c.729 1.045 1.537 2.288 2.504 3.128.35.386.718.763 1.092 1.133l.288.284c.364.352.733.699 1.115 1.036l.045.039.012.01c.422.372.858.727 1.302 1.079l.295.23c.445.341.898.676 1.363.995l.04.03c.204.142.414.274.622.41l.294.195c.332.213.668.42 1.01.62l.143.082c.294.17.593.337.892.5l.318.165c.207.108.414.218.625.323l.094.043c.429.21.861.414 1.304.607l.288.118c.352.15.71.297 1.067.433l.458.168c.325.12.651.23.98.341l.444.142c.468.145.93.33 1.418.41C70.2 53.107 76 33.761 76 33.761c-5.228 7.53-15.355 11.124-26.16 8.319-.48-.126-.953-.263-1.424-.411l-.427-.139a28.353 28.353 0 01-.995-.343l-.45-.167c-.36-.139-.717-.282-1.07-.432l-.29-.122c-.443-.193-.88-.396-1.31-.61-.222-.107-.44-.221-.657-.334l-.38-.195a27.18 27.18 0 01-.832-.47l-.198-.112c-.34-.199-.675-.404-1.007-.615l-.304-.203a39.326 39.326 0 01-.652-.431 35.48 35.48 0 01-1.358-.994l-.306-.24c-4.73-3.734-8.478-8.838-10.26-14.625-1.87-6-1.466-12.738 1.77-18.205l-3.976 5.613c-4.867 7.002-4.602 16.377-.806 23.783a30.747 30.747 0 002.153 3.595zm26.482-8.663c.207.076.414.144.623.216l.276.087c.295.093.589.2.895.259 13.873 2.68 17.636-7.12 18.638-8.562-3.297 4.746-8.836 5.885-15.633 4.235a17.348 17.348 0 01-1.645-.508 20.283 20.283 0 01-1.953-.81 20.239 20.239 0 01-3.423-2.09C45.238 15.973 41.46 7.17 45.428 0L43.28 2.96c-2.868 4.221-3.15 9.464-1.16 14.127 2.1 4.949 6.402 8.831 11.422 10.673z" fill="#707583"/></svg>