<svg width="126" height="60" viewBox="0 0 126 60" fill="none" xmlns="http://www.w3.org/2000/svg"><path fill-rule="evenodd" clip-rule="evenodd" d="M121.301 24.34c-.6-1.3-.89-2.837-.952-4.284-.154-3.56-.023-7.135-.184-10.695-.144-3.19-1.282-6.063-4.344-7.707C113.125.207 110 .063 107 .029v5.69c1 .035.754.066.998.079 4.029.198 5.379 1.476 5.43 5.473.038 2.971.012 5.945.06 8.916.059 3.605.597 7.046 3.894 9.322.056.04.051.183.083.349-1.678 1.191-3.006 2.726-3.392 4.821a34.53 34.53 0 00-.54 5.154c-.096 3.117.003 6.242-.086 9.36-.07 2.443-1.227 3.589-3.604 4.133-.895.206-1.843.279-2.843.405v5.677c2-.12 3.017-.199 4.387-.346 5.156-.558 8.059-3.241 8.654-8.243.186-1.569.165-3.166.2-4.75.066-2.97.032-5.953.298-8.904.271-3.01 2.461-4.675 5.461-4.508v-5.951c-2 .358-3.843-.508-4.699-2.366zM27.314 36.471C27.313 24.923 27 13.374 27 1.827V.01c-3 0-6.226-.03-9.391.014-1.285.017-2.418.127-3.692.3C9.04.99 6.689 3.279 5.825 8.138c-.25 1.402-.2 2.858-.221 4.293-.039 2.726.039 5.453-.005 8.178C5.544 24.04 3.927 26.7.427 26.902c-.124.008.573.15-.427.236v5.306c4 .628 5.273 2.242 5.539 5.959.042.591.053 1.188.059 1.783.034 3.32-.004 6.645.146 9.96.141 3.092.828 5.856 3.751 7.48C12.225 59.14 16 59.264 18 59.343v-5.665c0-.047-.21-.091-.405-.103-4.339-.266-5.317-1.444-5.343-5.786-.017-2.875.106-5.75.06-8.625-.058-3.611-.586-7.038-3.856-9.324-.05-.035-.001-.183-.017-.383 2.199-1.39 3.368-3.515 3.686-6.094.176-1.421.235-2.863.26-4.299.05-2.973-.003-5.948.078-8.92.057-2.087 1.39-3.61 3.091-3.951C17.166 5.868 18 5.878 21 5.727v2.056c0 10.31-.367 20.618-.313 30.928.019 3.532.41 7.013 4.195 8.538 2.058.828 4.263 1.084 6.627 1.642.395-2.313.524-4.23.847-6.128-4.357-1.25-5.042-1.898-5.042-6.29zM53.988 16.58c-7.34-3.51-16.248-.44-19.666 6.921-2.574 5.544-2.482 11.25-.216 16.873 1.229 3.047 3.45 5.33 6.473 6.672 5.904 2.62 11.879 1.983 17.832.143.321-.1.731-.718.692-1.046-.203-1.66-.54-3.306-.841-5.02-1.417.356-2.601.721-3.811.949-3.197.6-6.401.6-9.512-.637-3.072-1.22-5.135-4.73-4.622-7.73h20.872c.255-3 .154-7.126-1.123-10.537-1.14-3.049-3.108-5.167-6.078-6.588zm-.044 12.125H40.228c.007-4 3.264-7.59 7.537-7.508 3.753.072 6.349 3.508 6.179 7.508zm56.108 12.28c.492-5.055-1.034-7.898-5.534-10.095-1.596-.779-3.29-1.355-4.916-2.078-1.217-.54-2.442-1.087-3.58-1.77-1.108-.666-1.572-1.77-1.408-3.063.161-1.277.982-2.119 2.168-2.359 1.437-.291 2.943-.541 4.388-.424 2.042.168 4.056.69 6.163 1.075l1.332-5.817c-2.851-.434-5.509-.995-8.195-1.207-2.987-.236-5.896.26-8.63 1.67-5.777 2.976-5.883 12.116-.574 15.116 1.586.896 3.283 1.596 4.933 2.38 1.737.827 3.537 1.546 5.199 2.504 1.262.727 1.713 1.995 1.375 3.475-.313 1.375-1.354 1.988-2.577 2.105-1.86.176-3.768.346-5.609.127-2.217-.264-4.387-.936-6.658-1.45l-1.158 5.79c5.333 2.002 10.61 2.33 15.938 1.148 4.459-.987 6.999-3.595 7.343-7.127zM81.637 31.53c-1.959-1.038-4.066-1.796-6.088-2.723-1.255-.575-2.584-1.073-3.69-1.87-2.127-1.534-1.731-4.473.746-5.258 1.421-.453 3.028-.593 4.521-.48 2.034.152 4.041.678 6.162 1.063l1.258-5.547c-1.077-.293-2.052-.611-3.051-.822-3.971-.835-7.963-1.16-11.874.216-3.36 1.181-5.691 3.392-6.152 7.11-.516 4.152.861 7.43 4.696 9.401 1.535.79 3.18 1.363 4.747 2.096 1.564.73 3.161 1.427 4.614 2.343 1.111.7 1.549 1.884 1.236 3.255-.311 1.358-1.301 2.041-2.533 2.169-1.86.19-3.769.367-5.611.152-2.226-.26-4.403-.934-6.714-1.455-.341 1.614-.741 3.239-.99 4.886-.054.358.345 1.045.681 1.163 5.384 1.866 10.864 2.134 16.34.52 3.27-.962 5.557-3.05 6.018-6.623.523-4.055-.444-7.544-4.316-9.596z" fill="#5C6470"/></svg>