<svg width="148" height="58" viewBox="0 0 148 58" fill="none" xmlns="http://www.w3.org/2000/svg"><path fill-rule="evenodd" clip-rule="evenodd" d="M31.762 30.294c0-.615-.325-1.18-.856-1.487l-14.17-8.153a1.653 1.653 0 00-.78-.224h-.146c-.272.01-.54.084-.783.224L.857 28.807A1.724 1.724 0 000 30.297l.031 21.96c0 .304.157.589.425.74a.81.81 0 00.85 0l8.424-4.825c.532-.317.856-.876.856-1.486V36.427c0-.612.325-1.178.855-1.482l3.587-2.066a1.702 1.702 0 011.707 0l3.585 2.065c.53.304.857.87.857 1.482v10.259c0 .608.329 1.17.858 1.485l8.419 4.821a.837.837 0 00.856 0 .86.86 0 00.425-.74l.027-21.957zM98.63 41.728a.425.425 0 01-.214.37l-4.867 2.806a.43.43 0 01-.428 0l-4.867-2.806a.424.424 0 01-.215-.37V36.11a.43.43 0 01.211-.371l4.865-2.81a.433.433 0 01.431 0l4.868 2.81a.426.426 0 01.214.371l.002 5.62zM99.945.108a.86.86 0 00-.851.01.858.858 0 00-.422.739v21.746a.598.598 0 01-.898.519l-3.55-2.045a1.709 1.709 0 00-1.71 0l-14.176 8.181c-.53.305-.856.87-.856 1.48v16.366c0 .612.327 1.174.856 1.482l14.176 8.187a1.72 1.72 0 001.712 0l14.175-8.19c.529-.308.856-.87.856-1.483V6.31c0-.62-.337-1.191-.879-1.495L99.945.108zm47.204 35.853a1.71 1.71 0 00.851-1.48v-3.966c0-.61-.325-1.173-.852-1.48l-14.085-8.177a1.71 1.71 0 00-1.716 0l-14.173 8.18a1.71 1.71 0 00-.856 1.482v16.36c0 .616.331 1.185.863 1.49l14.082 8.025a1.706 1.706 0 001.679.01l8.518-4.734a.855.855 0 00.007-1.489L127.208 42a.849.849 0 01-.432-.74v-5.132a.85.85 0 01.429-.74l4.436-2.56a.846.846 0 01.853 0l4.44 2.56c.264.15.428.434.428.739v4.034c0 .305.164.59.428.743.264.15.592.15.857-.003l8.502-4.939z" fill="#A8ABB7"/><path fill-rule="evenodd" clip-rule="evenodd" d="M131.999 35.196c.1-.06.226-.06.328 0l2.72 1.569a.33.33 0 01.164.284v3.142a.33.33 0 01-.164.284l-2.72 1.57a.325.325 0 01-.328 0l-2.718-1.57a.327.327 0 01-.168-.284v-3.142c0-.117.061-.225.164-.284l2.722-1.57z" fill="#858891"/><mask id="a" maskUnits="userSpaceOnUse" x="39" y="21" width="32" height="37"><path d="M54.136 21.229l-14.273 8.254A1.697 1.697 0 0039 30.956v16.482c0 .61.33 1.194.864 1.498l14.273 8.23a1.746 1.746 0 001.727 0l14.273-8.23c.533-.304.863-.888.863-1.498V30.955c0-.609-.33-1.193-.864-1.498l-14.272-8.229A1.759 1.759 0 0055 21c-.305 0-.584.076-.864.229z" fill="url(#paint0_linear)"/></mask><g mask="url(#a)"><path d="M85.402 28.082L45.198 8.374 24.602 50.43l40.203 19.708 20.597-42.057z" fill="url(#paint1_linear)"/></g><mask id="b" maskUnits="userSpaceOnUse" x="39" y="21" width="32" height="37"><path d="M39.352 48.48c.127.177.304.33.508.457l12.24 7.06 2.032 1.168c.305.178.66.254.991.229a1.5 1.5 0 00.33-.051l15.06-27.556a2.565 2.565 0 00-.406-.33l-9.346-5.384-4.927-2.845a3.382 3.382 0 00-.457-.177L39.352 48.479z" fill="url(#paint2_linear)"/></mask><g mask="url(#b)"><path d="M21.98 33.897l28.394 38.426 37.537-27.734L59.517 6.164 21.98 33.897z" fill="url(#paint3_linear)"/></g><mask id="c" maskUnits="userSpaceOnUse" x="39" y="21" width="32" height="37"><path d="M54.818 21.025a1.687 1.687 0 00-.686.229L39.91 29.457l15.34 27.937c.203-.026.432-.102.61-.204l14.272-8.228a1.79 1.79 0 00.838-1.168L55.327 21.05c-.127-.026-.229-.026-.355-.026-.051-.025-.102 0-.153 0z" fill="url(#paint4_linear)"/></mask><g mask="url(#c)"><path d="M39.91 21v36.368h31.035V21H39.91z" fill="url(#paint5_linear)"/></g><defs><linearGradient id="paint0_linear" x1="60.42" y1="26.794" x2="47.459" y2="50.411" gradientUnits="userSpaceOnUse"><stop offset=".3" stop-color="#3E863D"/><stop offset=".5" stop-color="#55934F"/><stop offset=".8" stop-color="#5AAD45"/></linearGradient><linearGradient id="paint1_linear" x1="65.299" y1="18.208" x2="44.688" y2="60.256" gradientUnits="userSpaceOnUse"><stop offset=".3" stop-color="#63666C"/><stop offset=".5" stop-color="#83868D"/><stop offset=".8" stop-color="#9DA1AD"/></linearGradient><linearGradient id="paint2_linear" x1="46.053" y1="46.834" x2="65.59" y2="34.416" gradientUnits="userSpaceOnUse"><stop offset=".57" stop-color="#3E863D"/><stop offset=".72" stop-color="#619857"/><stop offset="1" stop-color="#76AC64"/></linearGradient><linearGradient id="paint3_linear" x1="36.158" y1="53.095" x2="73.699" y2="25.356" gradientUnits="userSpaceOnUse"><stop offset=".57" stop-color="#696D74"/><stop offset=".72" stop-color="#878C98"/><stop offset="1" stop-color="#9FA2AB"/></linearGradient><linearGradient id="paint4_linear" x1="39.912" y1="39.221" x2="70.982" y2="39.221" gradientUnits="userSpaceOnUse"><stop offset=".16" stop-color="#6BBF47"/><stop offset=".38" stop-color="#79B461"/><stop offset=".47" stop-color="#75AC64"/><stop offset=".7" stop-color="#659E5A"/><stop offset=".9" stop-color="#3E863D"/></linearGradient><linearGradient id="paint5_linear" x1="39.912" y1="39.201" x2="70.957" y2="39.201" gradientUnits="userSpaceOnUse"><stop offset=".16" stop-color="#B2B6BF"/><stop offset=".47" stop-color="#A3A6AC"/><stop offset=".7" stop-color="#8A8F98"/><stop offset=".9" stop-color="#6B7179"/></linearGradient></defs></svg>