<svg width="305" height="309" viewBox="0 0 305 309" fill="none" xmlns="http://www.w3.org/2000/svg">
<circle cx="2.5" cy="110.5" r="2.5" fill="#093953"/>
<circle cx="42.5" cy="110.5" r="2.5" fill="#093953"/>
<circle cx="22.5" cy="110.5" r="2.5" fill="#093953"/>
<circle cx="62.5" cy="110.5" r="2.5" fill="#093953"/>
<circle cx="2.5" cy="126.5" r="2.5" fill="#093953"/>
<circle cx="42.5" cy="126.5" r="2.5" fill="#093953"/>
<circle cx="22.5" cy="126.5" r="2.5" fill="#093953"/>
<circle cx="62.5" cy="126.5" r="2.5" fill="#093953"/>
<circle cx="82.5" cy="110.5" r="2.5" fill="#093953"/>
<circle cx="122.5" cy="110.5" r="2.5" fill="#093953"/>
<circle cx="102.5" cy="110.5" r="2.5" fill="#093953"/>
<circle cx="142.5" cy="110.5" r="2.5" fill="#093953"/>
<circle cx="82.5" cy="126.5" r="2.5" fill="#093953"/>
<circle cx="122.5" cy="126.5" r="2.5" fill="#093953"/>
<circle cx="102.5" cy="126.5" r="2.5" fill="#093953"/>
<circle cx="142.5" cy="126.5" r="2.5" fill="#093953"/>
<circle cx="162.5" cy="110.5" r="2.5" fill="#093953"/>
<circle cx="202.5" cy="110.5" r="2.5" fill="#093953"/>
<circle cx="182.5" cy="110.5" r="2.5" fill="#093953"/>
<circle cx="222.5" cy="110.5" r="2.5" fill="#093953"/>
<circle cx="162.5" cy="126.5" r="2.5" fill="#093953"/>
<circle cx="202.5" cy="126.5" r="2.5" fill="#093953"/>
<circle cx="182.5" cy="126.5" r="2.5" fill="#093953"/>
<circle cx="222.5" cy="126.5" r="2.5" fill="#093953"/>
<circle cx="242.5" cy="110.5" r="2.5" fill="#093953"/>
<circle cx="282.5" cy="110.5" r="2.5" fill="#093953"/>
<circle cx="262.5" cy="110.5" r="2.5" fill="#093953"/>
<circle cx="302.5" cy="110.5" r="2.5" fill="#093953"/>
<circle cx="242.5" cy="126.5" r="2.5" fill="#093953"/>
<circle cx="282.5" cy="126.5" r="2.5" fill="#093953"/>
<circle cx="262.5" cy="126.5" r="2.5" fill="#093953"/>
<circle cx="302.5" cy="126.5" r="2.5" fill="#093953"/>
<circle cx="2.5" cy="74.5" r="2.5" fill="#093953"/>
<circle cx="42.5" cy="74.5" r="2.5" fill="#093953"/>
<circle cx="22.5" cy="74.5" r="2.5" fill="#093953"/>
<circle cx="62.5" cy="74.5" r="2.5" fill="#093953"/>
<circle cx="2.5" cy="90.5" r="2.5" fill="#093953"/>
<circle cx="42.5" cy="90.5" r="2.5" fill="#093953"/>
<circle cx="22.5" cy="90.5" r="2.5" fill="#093953"/>
<circle cx="62.5" cy="90.5" r="2.5" fill="#093953"/>
<circle cx="82.5" cy="74.5" r="2.5" fill="#093953"/>
<circle cx="122.5" cy="74.5" r="2.5" fill="#093953"/>
<circle cx="102.5" cy="74.5" r="2.5" fill="#093953"/>
<circle cx="142.5" cy="74.5" r="2.5" fill="#093953"/>
<circle cx="82.5" cy="90.5" r="2.5" fill="#093953"/>
<circle cx="122.5" cy="90.5" r="2.5" fill="#093953"/>
<circle cx="102.5" cy="90.5" r="2.5" fill="#093953"/>
<circle cx="142.5" cy="90.5" r="2.5" fill="#093953"/>
<circle cx="162.5" cy="74.5" r="2.5" fill="#093953"/>
<circle cx="202.5" cy="74.5" r="2.5" fill="#093953"/>
<circle cx="182.5" cy="74.5" r="2.5" fill="#093953"/>
<circle cx="222.5" cy="74.5" r="2.5" fill="#093953"/>
<circle cx="162.5" cy="90.5" r="2.5" fill="#093953"/>
<circle cx="202.5" cy="90.5" r="2.5" fill="#093953"/>
<circle cx="182.5" cy="90.5" r="2.5" fill="#093953"/>
<circle cx="222.5" cy="90.5" r="2.5" fill="#093953"/>
<circle cx="242.5" cy="74.5" r="2.5" fill="#093953"/>
<circle cx="282.5" cy="74.5" r="2.5" fill="#093953"/>
<circle cx="262.5" cy="74.5" r="2.5" fill="#093953"/>
<circle cx="302.5" cy="74.5" r="2.5" fill="#093953"/>
<circle cx="242.5" cy="90.5" r="2.5" fill="#093953"/>
<circle cx="282.5" cy="90.5" r="2.5" fill="#093953"/>
<circle cx="262.5" cy="90.5" r="2.5" fill="#093953"/>
<circle cx="302.5" cy="90.5" r="2.5" fill="#093953"/>
<circle cx="2.5" cy="38.5" r="2.5" fill="#093953"/>
<circle cx="42.5" cy="38.5" r="2.5" fill="#093953"/>
<circle cx="22.5" cy="38.5" r="2.5" fill="#093953"/>
<circle cx="62.5" cy="38.5" r="2.5" fill="#093953"/>
<circle cx="2.5" cy="54.5" r="2.5" fill="#093953"/>
<circle cx="42.5" cy="54.5" r="2.5" fill="#093953"/>
<circle cx="22.5" cy="54.5" r="2.5" fill="#093953"/>
<circle cx="62.5" cy="54.5" r="2.5" fill="#093953"/>
<circle cx="82.5" cy="38.5" r="2.5" fill="#093953"/>
<circle cx="122.5" cy="38.5" r="2.5" fill="#093953"/>
<circle cx="102.5" cy="38.5" r="2.5" fill="#093953"/>
<circle cx="142.5" cy="38.5" r="2.5" fill="#093953"/>
<circle cx="82.5" cy="54.5" r="2.5" fill="#093953"/>
<circle cx="122.5" cy="54.5" r="2.5" fill="#093953"/>
<circle cx="102.5" cy="54.5" r="2.5" fill="#093953"/>
<circle cx="142.5" cy="54.5" r="2.5" fill="#093953"/>
<circle cx="162.5" cy="38.5" r="2.5" fill="#093953"/>
<circle cx="202.5" cy="38.5" r="2.5" fill="#093953"/>
<circle cx="182.5" cy="38.5" r="2.5" fill="#093953"/>
<circle cx="222.5" cy="38.5" r="2.5" fill="#093953"/>
<circle cx="162.5" cy="54.5" r="2.5" fill="#093953"/>
<circle cx="202.5" cy="54.5" r="2.5" fill="#093953"/>
<circle cx="182.5" cy="54.5" r="2.5" fill="#093953"/>
<circle cx="222.5" cy="54.5" r="2.5" fill="#093953"/>
<circle cx="242.5" cy="38.5" r="2.5" fill="#093953"/>
<circle cx="282.5" cy="38.5" r="2.5" fill="#093953"/>
<circle cx="262.5" cy="38.5" r="2.5" fill="#093953"/>
<circle cx="302.5" cy="38.5" r="2.5" fill="#093953"/>
<circle cx="242.5" cy="54.5" r="2.5" fill="#093953"/>
<circle cx="282.5" cy="54.5" r="2.5" fill="#093953"/>
<circle cx="262.5" cy="54.5" r="2.5" fill="#093953"/>
<circle cx="302.5" cy="54.5" r="2.5" fill="#093953"/>
<circle cx="2.5" cy="2.5" r="2.5" fill="#093953"/>
<circle cx="42.5" cy="2.5" r="2.5" fill="#093953"/>
<circle cx="22.5" cy="2.5" r="2.5" fill="#093953"/>
<circle cx="62.5" cy="2.5" r="2.5" fill="#093953"/>
<circle cx="2.5" cy="18.5" r="2.5" fill="#093953"/>
<circle cx="42.5" cy="18.5" r="2.5" fill="#093953"/>
<circle cx="22.5" cy="18.5" r="2.5" fill="#093953"/>
<circle cx="62.5" cy="18.5" r="2.5" fill="#093953"/>
<circle cx="82.5" cy="2.5" r="2.5" fill="#093953"/>
<circle cx="122.5" cy="2.5" r="2.5" fill="#093953"/>
<circle cx="102.5" cy="2.5" r="2.5" fill="#093953"/>
<circle cx="142.5" cy="2.5" r="2.5" fill="#093953"/>
<circle cx="82.5" cy="18.5" r="2.5" fill="#093953"/>
<circle cx="122.5" cy="18.5" r="2.5" fill="#093953"/>
<circle cx="102.5" cy="18.5" r="2.5" fill="#093953"/>
<circle cx="142.5" cy="18.5" r="2.5" fill="#093953"/>
<circle cx="162.5" cy="2.5" r="2.5" fill="#093953"/>
<circle cx="202.5" cy="2.5" r="2.5" fill="#093953"/>
<circle cx="182.5" cy="2.5" r="2.5" fill="#093953"/>
<circle cx="222.5" cy="2.5" r="2.5" fill="#093953"/>
<circle cx="162.5" cy="18.5" r="2.5" fill="#093953"/>
<circle cx="202.5" cy="18.5" r="2.5" fill="#093953"/>
<circle cx="182.5" cy="18.5" r="2.5" fill="#093953"/>
<circle cx="222.5" cy="18.5" r="2.5" fill="#093953"/>
<circle cx="242.5" cy="2.5" r="2.5" fill="#093953"/>
<circle cx="282.5" cy="2.5" r="2.5" fill="#093953"/>
<circle cx="262.5" cy="2.5" r="2.5" fill="#093953"/>
<circle cx="302.5" cy="2.5" r="2.5" fill="#093953"/>
<circle cx="242.5" cy="18.5" r="2.5" fill="#093953"/>
<circle cx="282.5" cy="18.5" r="2.5" fill="#093953"/>
<circle cx="262.5" cy="18.5" r="2.5" fill="#093953"/>
<circle cx="302.5" cy="18.5" r="2.5" fill="#093953"/>
<circle cx="2.5" cy="146.5" r="2.5" fill="#093953"/>
<circle cx="42.5" cy="146.5" r="2.5" fill="#093953"/>
<circle cx="22.5" cy="146.5" r="2.5" fill="#093953"/>
<circle cx="62.5" cy="146.5" r="2.5" fill="#093953"/>
<circle cx="2.5" cy="162.5" r="2.5" fill="#093953"/>
<circle cx="42.5" cy="162.5" r="2.5" fill="#093953"/>
<circle cx="22.5" cy="162.5" r="2.5" fill="#093953"/>
<circle cx="62.5" cy="162.5" r="2.5" fill="#093953"/>
<circle cx="82.5" cy="146.5" r="2.5" fill="#093953"/>
<circle cx="122.5" cy="146.5" r="2.5" fill="#093953"/>
<circle cx="102.5" cy="146.5" r="2.5" fill="#093953"/>
<circle cx="142.5" cy="146.5" r="2.5" fill="#093953"/>
<circle cx="82.5" cy="162.5" r="2.5" fill="#093953"/>
<circle cx="122.5" cy="162.5" r="2.5" fill="#093953"/>
<circle cx="102.5" cy="162.5" r="2.5" fill="#093953"/>
<circle cx="142.5" cy="162.5" r="2.5" fill="#093953"/>
<circle cx="162.5" cy="146.5" r="2.5" fill="#093953"/>
<circle cx="202.5" cy="146.5" r="2.5" fill="#093953"/>
<circle cx="182.5" cy="146.5" r="2.5" fill="#093953"/>
<circle cx="222.5" cy="146.5" r="2.5" fill="#093953"/>
<circle cx="162.5" cy="162.5" r="2.5" fill="#093953"/>
<circle cx="202.5" cy="162.5" r="2.5" fill="#093953"/>
<circle cx="182.5" cy="162.5" r="2.5" fill="#093953"/>
<circle cx="222.5" cy="162.5" r="2.5" fill="#093953"/>
<circle cx="242.5" cy="146.5" r="2.5" fill="#093953"/>
<circle cx="282.5" cy="146.5" r="2.5" fill="#093953"/>
<circle cx="262.5" cy="146.5" r="2.5" fill="#093953"/>
<circle cx="302.5" cy="146.5" r="2.5" fill="#093953"/>
<circle cx="242.5" cy="162.5" r="2.5" fill="#093953"/>
<circle cx="282.5" cy="162.5" r="2.5" fill="#093953"/>
<circle cx="262.5" cy="162.5" r="2.5" fill="#093953"/>
<circle cx="302.5" cy="162.5" r="2.5" fill="#093953"/>
<circle cx="2.5" cy="182.5" r="2.5" fill="#093953"/>
<circle cx="42.5" cy="182.5" r="2.5" fill="#093953"/>
<circle cx="22.5" cy="182.5" r="2.5" fill="#093953"/>
<circle cx="62.5" cy="182.5" r="2.5" fill="#093953"/>
<circle cx="2.5" cy="198.5" r="2.5" fill="#093953"/>
<circle cx="42.5" cy="198.5" r="2.5" fill="#093953"/>
<circle cx="22.5" cy="198.5" r="2.5" fill="#093953"/>
<circle cx="62.5" cy="198.5" r="2.5" fill="#093953"/>
<circle cx="82.5" cy="182.5" r="2.5" fill="#093953"/>
<circle cx="122.5" cy="182.5" r="2.5" fill="#093953"/>
<circle cx="102.5" cy="182.5" r="2.5" fill="#093953"/>
<circle cx="142.5" cy="182.5" r="2.5" fill="#093953"/>
<circle cx="82.5" cy="198.5" r="2.5" fill="#093953"/>
<circle cx="122.5" cy="198.5" r="2.5" fill="#093953"/>
<circle cx="102.5" cy="198.5" r="2.5" fill="#093953"/>
<circle cx="142.5" cy="198.5" r="2.5" fill="#093953"/>
<circle cx="162.5" cy="182.5" r="2.5" fill="#093953"/>
<circle cx="202.5" cy="182.5" r="2.5" fill="#093953"/>
<circle cx="182.5" cy="182.5" r="2.5" fill="#093953"/>
<circle cx="222.5" cy="182.5" r="2.5" fill="#093953"/>
<circle cx="162.5" cy="198.5" r="2.5" fill="#093953"/>
<circle cx="202.5" cy="198.5" r="2.5" fill="#093953"/>
<circle cx="182.5" cy="198.5" r="2.5" fill="#093953"/>
<circle cx="222.5" cy="198.5" r="2.5" fill="#093953"/>
<circle cx="242.5" cy="182.5" r="2.5" fill="#093953"/>
<circle cx="282.5" cy="182.5" r="2.5" fill="#093953"/>
<circle cx="262.5" cy="182.5" r="2.5" fill="#093953"/>
<circle cx="302.5" cy="182.5" r="2.5" fill="#093953"/>
<circle cx="242.5" cy="198.5" r="2.5" fill="#093953"/>
<circle cx="282.5" cy="198.5" r="2.5" fill="#093953"/>
<circle cx="262.5" cy="198.5" r="2.5" fill="#093953"/>
<circle cx="302.5" cy="198.5" r="2.5" fill="#093953"/>
<circle cx="2.5" cy="218.5" r="2.5" fill="#093953"/>
<circle cx="42.5" cy="218.5" r="2.5" fill="#093953"/>
<circle cx="22.5" cy="218.5" r="2.5" fill="#093953"/>
<circle cx="62.5" cy="218.5" r="2.5" fill="#093953"/>
<circle cx="2.5" cy="234.5" r="2.5" fill="#093953"/>
<circle cx="42.5" cy="234.5" r="2.5" fill="#093953"/>
<circle cx="22.5" cy="234.5" r="2.5" fill="#093953"/>
<circle cx="62.5" cy="234.5" r="2.5" fill="#093953"/>
<circle cx="82.5" cy="218.5" r="2.5" fill="#093953"/>
<circle cx="122.5" cy="218.5" r="2.5" fill="#093953"/>
<circle cx="102.5" cy="218.5" r="2.5" fill="#093953"/>
<circle cx="142.5" cy="218.5" r="2.5" fill="#093953"/>
<circle cx="82.5" cy="234.5" r="2.5" fill="#093953"/>
<circle cx="122.5" cy="234.5" r="2.5" fill="#093953"/>
<circle cx="102.5" cy="234.5" r="2.5" fill="#093953"/>
<circle cx="142.5" cy="234.5" r="2.5" fill="#093953"/>
<circle cx="162.5" cy="218.5" r="2.5" fill="#093953"/>
<circle cx="202.5" cy="218.5" r="2.5" fill="#093953"/>
<circle cx="182.5" cy="218.5" r="2.5" fill="#093953"/>
<circle cx="222.5" cy="218.5" r="2.5" fill="#093953"/>
<circle cx="162.5" cy="234.5" r="2.5" fill="#093953"/>
<circle cx="202.5" cy="234.5" r="2.5" fill="#093953"/>
<circle cx="182.5" cy="234.5" r="2.5" fill="#093953"/>
<circle cx="222.5" cy="234.5" r="2.5" fill="#093953"/>
<circle cx="242.5" cy="218.5" r="2.5" fill="#093953"/>
<circle cx="282.5" cy="218.5" r="2.5" fill="#093953"/>
<circle cx="262.5" cy="218.5" r="2.5" fill="#093953"/>
<circle cx="302.5" cy="218.5" r="2.5" fill="#093953"/>
<circle cx="242.5" cy="234.5" r="2.5" fill="#093953"/>
<circle cx="282.5" cy="234.5" r="2.5" fill="#093953"/>
<circle cx="262.5" cy="234.5" r="2.5" fill="#093953"/>
<circle cx="302.5" cy="234.5" r="2.5" fill="#093953"/>
<circle cx="2.5" cy="254.5" r="2.5" fill="#093953"/>
<circle cx="42.5" cy="254.5" r="2.5" fill="#093953"/>
<circle cx="22.5" cy="254.5" r="2.5" fill="#093953"/>
<circle cx="62.5" cy="254.5" r="2.5" fill="#093953"/>
<circle cx="2.5" cy="270.5" r="2.5" fill="#093953"/>
<circle cx="42.5" cy="270.5" r="2.5" fill="#093953"/>
<circle cx="22.5" cy="270.5" r="2.5" fill="#093953"/>
<circle cx="62.5" cy="270.5" r="2.5" fill="#093953"/>
<circle cx="82.5" cy="254.5" r="2.5" fill="#093953"/>
<circle cx="122.5" cy="254.5" r="2.5" fill="#093953"/>
<circle cx="102.5" cy="254.5" r="2.5" fill="#093953"/>
<circle cx="142.5" cy="254.5" r="2.5" fill="#093953"/>
<circle cx="82.5" cy="270.5" r="2.5" fill="#093953"/>
<circle cx="122.5" cy="270.5" r="2.5" fill="#093953"/>
<circle cx="102.5" cy="270.5" r="2.5" fill="#093953"/>
<circle cx="142.5" cy="270.5" r="2.5" fill="#093953"/>
<circle cx="162.5" cy="254.5" r="2.5" fill="#093953"/>
<circle cx="202.5" cy="254.5" r="2.5" fill="#093953"/>
<circle cx="182.5" cy="254.5" r="2.5" fill="#093953"/>
<circle cx="222.5" cy="254.5" r="2.5" fill="#093953"/>
<circle cx="162.5" cy="270.5" r="2.5" fill="#093953"/>
<circle cx="202.5" cy="270.5" r="2.5" fill="#093953"/>
<circle cx="182.5" cy="270.5" r="2.5" fill="#093953"/>
<circle cx="222.5" cy="270.5" r="2.5" fill="#093953"/>
<circle cx="242.5" cy="254.5" r="2.5" fill="#093953"/>
<circle cx="282.5" cy="254.5" r="2.5" fill="#093953"/>
<circle cx="262.5" cy="254.5" r="2.5" fill="#093953"/>
<circle cx="302.5" cy="254.5" r="2.5" fill="#093953"/>
<circle cx="242.5" cy="270.5" r="2.5" fill="#093953"/>
<circle cx="282.5" cy="270.5" r="2.5" fill="#093953"/>
<circle cx="262.5" cy="270.5" r="2.5" fill="#093953"/>
<circle cx="302.5" cy="270.5" r="2.5" fill="#093953"/>
<circle cx="2.5" cy="290.5" r="2.5" fill="#093953"/>
<circle cx="42.5" cy="290.5" r="2.5" fill="#093953"/>
<circle cx="22.5" cy="290.5" r="2.5" fill="#093953"/>
<circle cx="62.5" cy="290.5" r="2.5" fill="#093953"/>
<circle cx="2.5" cy="306.5" r="2.5" fill="#093953"/>
<circle cx="42.5" cy="306.5" r="2.5" fill="#093953"/>
<circle cx="22.5" cy="306.5" r="2.5" fill="#093953"/>
<circle cx="62.5" cy="306.5" r="2.5" fill="#093953"/>
<circle cx="82.5" cy="290.5" r="2.5" fill="#093953"/>
<circle cx="122.5" cy="290.5" r="2.5" fill="#093953"/>
<circle cx="102.5" cy="290.5" r="2.5" fill="#093953"/>
<circle cx="142.5" cy="290.5" r="2.5" fill="#093953"/>
<circle cx="82.5" cy="306.5" r="2.5" fill="#093953"/>
<circle cx="122.5" cy="306.5" r="2.5" fill="#093953"/>
<circle cx="102.5" cy="306.5" r="2.5" fill="#093953"/>
<circle cx="142.5" cy="306.5" r="2.5" fill="#093953"/>
<circle cx="162.5" cy="290.5" r="2.5" fill="#093953"/>
<circle cx="202.5" cy="290.5" r="2.5" fill="#093953"/>
<circle cx="182.5" cy="290.5" r="2.5" fill="#093953"/>
<circle cx="222.5" cy="290.5" r="2.5" fill="#093953"/>
<circle cx="162.5" cy="306.5" r="2.5" fill="#093953"/>
<circle cx="202.5" cy="306.5" r="2.5" fill="#093953"/>
<circle cx="182.5" cy="306.5" r="2.5" fill="#093953"/>
<circle cx="222.5" cy="306.5" r="2.5" fill="#093953"/>
<circle cx="242.5" cy="290.5" r="2.5" fill="#093953"/>
<circle cx="282.5" cy="290.5" r="2.5" fill="#093953"/>
<circle cx="262.5" cy="290.5" r="2.5" fill="#093953"/>
<circle cx="302.5" cy="290.5" r="2.5" fill="#093953"/>
<circle cx="242.5" cy="306.5" r="2.5" fill="#093953"/>
<circle cx="282.5" cy="306.5" r="2.5" fill="#093953"/>
<circle cx="262.5" cy="306.5" r="2.5" fill="#093953"/>
<circle cx="302.5" cy="306.5" r="2.5" fill="#093953"/>
</svg>
