<svg width="135" height="21" viewBox="0 0 135 21" fill="none" xmlns="http://www.w3.org/2000/svg">
<path d="M9.90392 0.308105L12.119 7.41142H19.2873L13.488 11.8015L15.7032 18.9048L9.90392 14.5147L4.10469 18.9048L6.3198 11.8015L0.520574 7.41142H7.68882L9.90392 0.308105Z" fill="#093953"/>
<path d="M38.6057 0.308105L40.8208 7.41142H47.9891L42.1898 11.8015L44.405 18.9048L38.6057 14.5147L32.8065 18.9048L35.0216 11.8015L29.2224 7.41142H36.3906L38.6057 0.308105Z" fill="#093953"/>
<path d="M67.3075 0.308105L69.5226 7.41142H76.6909L70.8916 11.8015L73.1067 18.9048L67.3075 14.5147L61.5083 18.9048L63.7234 11.8015L57.9242 7.41142H65.0924L67.3075 0.308105Z" fill="#093953"/>
<path d="M96.0092 0.308105L98.2243 7.41142H105.393L99.5934 11.8015L101.808 18.9048L96.0092 14.5147L90.21 18.9048L92.4251 11.8015L86.6259 7.41142H93.7941L96.0092 0.308105Z" fill="#093953"/>
<path d="M124.711 0.308105L126.926 7.41142H134.094L128.295 11.8015L130.51 18.9048L124.711 14.5147L118.912 18.9048L121.127 11.8015L115.328 7.41142H122.496L124.711 0.308105Z" fill="#093953"/>
</svg>
