<svg width="61" height="75" viewBox="0 0 61 75" fill="none" xmlns="http://www.w3.org/2000/svg"><path fill-rule="evenodd" clip-rule="evenodd" d="M30 17.038v11.575L10 40.29v16.815c1.318-.754 19.966-11.507 19.966-11.507v11.507L.05 74.229 0 34.195l30-17.157zM60 0v34.212l-9.914-5.685-.035-11.284-10.068 5.53L30 17.039 60 0z" fill="#7C838C"/><path fill-rule="evenodd" clip-rule="evenodd" d="M29.984 57.106V45.599l20.017 11.387V40.222l-20-11.61V17.039l30 17.174v40L29.984 57.106zM19.948 22.74l-9.93-5.685V28.51L0 34.195.034 0S20.445 11.541 30 17.038L19.948 22.74zm-4.623 14.435l14.658 8.424-10.017 5.77-9.949-5.718L10 40.29l5.325-3.116z" fill="#4A525E"/><path fill-rule="evenodd" clip-rule="evenodd" d="M29.984 45.668l14.76-8.493 5.275 3.047v5.48c-3.322 1.9-9.88 5.685-9.88 5.685l-10.155-5.72z" fill="#7C838C"/></svg>