<svg width="69" height="69" viewBox="0 0 69 69" fill="none" xmlns="http://www.w3.org/2000/svg"><path d="M0 60.103A8.897 8.897 0 008.897 69h51.206A8.897 8.897 0 0069 60.103V8.897A8.897 8.897 0 0060.103 0H8.897A8.897 8.897 0 000 8.897v51.206z" fill="#525966"/><path d="M28.616 30.521V20.75h8.601c.82 0 1.61.068 2.37.205.76.136 1.433.38 2.019.73a3.9 3.9 0 011.404 1.464c.35.624.527 1.424.527 2.398 0 1.756-.527 3.024-1.58 3.804-1.053.78-2.4 1.17-4.038 1.17h-9.303zm-9.186-16.91V55.39h20.245c1.872 0 3.696-.234 5.47-.703 1.775-.468 3.355-1.19 4.74-2.164 1.385-.975 2.487-2.234 3.306-3.774.82-1.541 1.229-3.365 1.229-5.471 0-2.614-.634-4.847-1.902-6.7-1.268-1.853-3.189-3.15-5.764-3.891 1.873-.897 3.287-2.048 4.243-3.452.955-1.404 1.433-3.16 1.433-5.266 0-1.95-.322-3.589-.965-4.915-.644-1.326-1.55-2.39-2.721-3.189-1.17-.8-2.574-1.375-4.213-1.726-1.638-.351-3.452-.527-5.441-.527H19.43zm9.186 34.64V36.78h10.005c1.99 0 3.59.459 4.799 1.376 1.209.917 1.813 2.448 1.813 4.593 0 1.093-.185 1.99-.555 2.692a4.416 4.416 0 01-1.493 1.667c-.624.41-1.345.702-2.165.878a12.29 12.29 0 01-2.574.263h-9.83z" fill="#fff"/></svg>