<svg width="120" height="46" viewBox="0 0 120 46" fill="none" xmlns="http://www.w3.org/2000/svg"><path fill-rule="evenodd" clip-rule="evenodd" d="M117.962 31.869s-2.919 2.264-5.489 2.011c-2.569-.252-1.762-5.994-1.762-5.994s.554-5.265-.96-5.708c-1.51-.439-3.373 1.372-3.373 1.372s-2.316 2.57-3.424 5.846l-.305.1s.353-5.745-.049-7.054c-.301-.654-3.071-.602-3.525.554-.454 1.16-2.67 9.219-2.822 12.595 0 0-4.333 3.678-8.107 4.28-3.778.606-4.686-1.762-4.686-1.762s10.275-2.871 9.922-11.082c-.35-8.21-8.285-5.172-9.181-4.5-.87.655-5.508 3.451-6.861 11.197-.045.26-.127 1.413-.127 1.413s-3.979 2.667-6.195 3.373c0 0 6.195-10.427-1.357-15.16-2.126-1.28-3.98-.1-5.08.98-.675.662 9.159-10.095 6.89-19.719C70.394.03 68.104-.46 66.002.283c-3.19 1.257-4.399 3.12-4.399 3.12s-4.131 5.994-5.09 14.911c-.956 8.914-2.365 19.694-2.365 19.694s-1.968 1.915-3.779 2.016c-1.814.096-1.007-5.392-1.007-5.392s1.41-8.36 1.312-9.773c-.104-1.41-.204-2.164-1.866-2.666-1.663-.506-3.477 1.61-3.477 1.61s-4.782 7.251-5.184 8.36l-.257.457-.249-.305s3.373-9.873.153-10.022c-3.224-.152-5.34 3.526-5.34 3.526s-3.678 6.146-3.83 6.85l-.25-.302s1.51-7.15 1.209-8.917c-.305-1.763-1.963-1.41-1.963-1.41s-2.116-.252-2.67 1.109c-.555 1.36-2.57 10.374-2.823 13.245 0 0-5.288 3.779-8.765 3.827-3.473.052-3.12-2.202-3.12-2.202s12.744-4.362 9.267-12.974c-1.562-2.216-3.373-2.912-5.942-2.863-2.57.052-5.757 1.617-7.82 6.25-.99 2.21-1.347 4.31-1.551 5.895 0 0-2.228.457-3.436-.55-1.212-1.008-1.833 0-1.833 0s-2.075 2.647-.012 3.45c2.068.807 5.288 1.183 5.288 1.183.298 1.41 1.157 3.808 3.674 5.715 3.778 2.871 11.026-.264 11.026-.264l2.971-1.666s.1 2.726 2.269 3.124c2.164.398 3.071-.007 6.85-9.174 2.216-4.685 2.368-4.432 2.368-4.432.25-.053-1.461 8.913-.807 11.33.655 2.421 3.525 2.168 3.525 2.168s1.562.301 2.823-4.131c1.257-4.433 3.677-9.32 3.677-9.32.298 0-.758 9.167.852 12.09 1.614 2.923 5.794.982 5.794.982s2.923-1.473 3.376-1.926c0 0 3.466 2.952 8.356 2.417 10.933-2.153 14.822-5.061 14.822-5.061s1.878 4.76 7.698 5.202c6.645.502 10.275-3.678 10.275-3.678s-.053 2.719 2.264 3.678c2.321.956 3.879-4.425 3.879-4.425l3.878-10.688c.354 0 .554 6.95 4.385 8.059 3.826 1.108 8.813-2.596 8.813-2.596s1.208-.665 1.007-2.68c-.204-2.016-2.015-1.265-2.015-1.265zM17.076 26.826c1.357 1.31.855 4.128-1.715 5.89-2.566 1.767-3.726 1.414-3.726 1.414.153-5.995 4.083-8.616 5.44-7.304zM67.192 6.125c.855 4.533-7.505 18.031-7.505 18.031.1-3.023 3.072-13.245 3.072-13.245s3.573-9.32 4.433-4.786zm-8.263 34.4s-.655-2.216 1.208-8.41c1.867-6.196 6.248-3.779 6.248-3.779s3.023 2.317.654 8.512c-2.365 6.195-8.11 3.678-8.11 3.678zm25.487-12.137c2.064-3.778 3.678-1.714 3.678-1.714s1.763 1.915-.253 4.786c-2.015 2.87-4.934 2.67-4.934 2.67s-.555-1.968 1.51-5.742z" fill="#D0D0D0"/></svg>