<svg width="80" height="72" viewBox="0 0 80 72" fill="none" xmlns="http://www.w3.org/2000/svg"><path d="M40.016 42.661a7.149 7.149 0 100-14.297 7.149 7.149 0 000 14.297z" fill="#8D96A7"/><path d="M40.014 51.889c-10.039 0-18.81-1.182-25.375-3.432-4.258-1.453-7.875-3.39-10.452-5.596C1.452 40.525 0 37.976 0 35.513c0-4.728 5.183-9.356 13.884-12.375C21.004 20.66 30.288 19.28 40 19.28c9.54 0 18.697 1.339 25.774 3.788 4.144 1.424 7.633 3.275 10.11 5.326 2.692 2.25 4.116 4.713 4.116 7.12 0 4.912-5.796 9.882-15.137 12.972-6.607 2.193-15.436 3.404-24.849 3.404zm0-29.192c-9.213 0-18.327 1.338-24.99 3.66-8.004 2.79-11.592 6.607-11.592 9.156 0 2.648 3.859 6.82 12.317 9.711 6.209 2.122 14.61 3.247 24.265 3.247 9.057 0 17.501-1.14 23.78-3.232 8.787-2.92 12.803-7.092 12.803-9.726 0-1.353-1.026-2.948-2.891-4.5-2.15-1.794-5.283-3.432-9.028-4.728-6.736-2.307-15.493-3.588-24.664-3.588z" fill="#8D96A7"/><path d="M23.799 71.141c-1.453 0-2.735-.313-3.817-.94-4.087-2.364-5.51-9.17-3.788-18.213 1.41-7.419 4.856-16.134 9.712-24.55 4.77-8.259 10.495-15.521 16.148-20.434 3.304-2.876 6.65-4.984 9.669-6.094C55.013-.3 57.86-.3 59.94.895c4.257 2.45 5.667 9.968 3.673 19.595-1.41 6.835-4.77 15.08-9.47 23.24-5.012 8.685-10.423 15.692-15.649 20.263-3.389 2.961-6.878 5.126-10.067 6.25-1.667.599-3.233.898-4.628.898zm3.574-42.848l1.48.854c-4.599 7.975-8.002 16.533-9.312 23.482-1.58 8.33-.057 13.343 2.136 14.61.54.313 1.253.484 2.122.484 2.833 0 7.29-1.794 12.445-6.294 4.941-4.314 10.11-11.036 14.938-19.395 4.528-7.846 7.746-15.735 9.085-22.214 1.865-9.07.256-14.624-2.036-15.949-1.168-.669-3.062-.583-5.34.257-2.635.968-5.61 2.862-8.601 5.468-5.369 4.67-10.851 11.62-15.436 19.566l-1.481-.869z" fill="#8D96A7"/><path d="M56.231 71.184c-3.873 0-8.786-2.336-13.912-6.75-5.725-4.927-11.549-12.26-16.419-20.676-4.785-8.26-8.202-16.846-9.64-24.208-.84-4.3-.997-8.245-.456-11.42.598-3.461 2.008-5.925 4.101-7.135 4.243-2.463 11.463.071 18.81 6.607 5.213 4.628 10.68 11.663 15.394 19.808 5.027 8.686 8.402 16.875 9.74 23.681.87 4.414 1.012 8.516.4 11.848-.656 3.545-2.137 6.066-4.273 7.305-1.068.626-2.335.94-3.745.94zm-27.37-29.135c4.615 7.974 10.34 15.194 15.693 19.793 6.422 5.525 11.52 6.722 13.728 5.44 2.292-1.324 3.973-6.75 2.235-15.522-1.281-6.436-4.514-14.268-9.355-22.627-4.543-7.846-9.769-14.581-14.71-18.967-6.92-6.152-12.531-7.533-14.824-6.21-1.168.67-2.036 2.365-2.45 4.757-.47 2.763-.327 6.294.442 10.182 1.367 6.991 4.642 15.208 9.242 23.154z" fill="#8D96A7"/></svg>