<svg width="107" height="80" viewBox="0 0 107 80" fill="none" xmlns="http://www.w3.org/2000/svg"><path d="M91.848 45.989c-3.72.02-6.955.916-9.663 2.24-.994-1.967-1.987-3.721-2.163-5.007-.195-1.5-.428-2.416-.195-4.209.234-1.792 1.286-4.345 1.267-4.54-.02-.194-.234-1.11-2.377-1.13-2.143-.02-3.994.41-4.209.975a23.504 23.504 0 00-.896 3.175c-.37 1.949-4.286 8.905-6.527 12.549-.72-1.423-1.344-2.67-1.48-3.663-.195-1.5-.429-2.417-.195-4.21.234-1.792 1.286-4.344 1.266-4.54-.02-.194-.234-1.11-2.377-1.13-2.143-.019-3.994.41-4.208.975-.214.565-.448 1.89-.896 3.176-.448 1.286-5.65 12.899-7.014 15.9a89.816 89.816 0 01-1.734 3.604s-.02.059-.078.156c-.37.721-.585 1.11-.585 1.11v.02c-.292.526-.604 1.013-.76 1.013-.116 0-.33-1.403.04-3.312.779-4.033 2.63-10.307 2.61-10.522 0-.117.35-1.208-1.208-1.773-1.52-.565-2.065.37-2.201.37-.137 0-.234.332-.234.332s1.695-7.054-3.234-7.054c-3.079 0-7.326 3.371-9.43 6.41-1.325.722-4.15 2.26-7.17 3.917-1.15.643-2.338 1.286-3.448 1.89-.078-.078-.156-.175-.234-.253-5.962-6.372-16.99-10.873-16.522-19.426.176-3.118 1.247-11.301 21.178-21.239 16.405-8.086 29.459-5.845 31.719-.877 3.234 7.093-6.995 20.264-23.945 22.174-6.468.72-9.858-1.773-10.716-2.708-.896-.975-1.032-1.033-1.363-.838-.546.292-.195 1.169 0 1.675.506 1.325 2.59 3.664 6.117 4.813 3.117 1.013 10.696 1.579 19.873-1.968C61.123 30.09 69.15 19.042 66.793 9.786 64.436.395 48.85-2.704 34.1 2.538c-8.767 3.118-18.275 8.028-25.113 14.419C.862 24.556-.423 31.16.103 33.927c1.89 9.821 15.43 16.212 20.846 20.947-.272.156-.526.292-.74.409-2.708 1.344-13.034 6.742-15.606 12.45-2.922 6.47.468 11.107 2.708 11.73 6.956 1.93 14.106-1.539 17.944-7.267 3.838-5.729 3.37-13.172 1.598-16.582a.41.41 0 00-.078-.117c.701-.409 1.422-.837 2.123-1.247a103.636 103.636 0 013.917-2.201c-.663 1.812-1.15 3.974-1.384 7.092-.292 3.663 1.208 8.417 3.176 10.288.877.818 1.91.838 2.572.838 2.299 0 3.331-1.91 4.48-4.17 1.404-2.767 2.67-5.982 2.67-5.982s-1.578 8.69 2.708 8.69c1.559 0 3.137-2.026 3.838-3.059v.02s.04-.059.117-.195l.254-.41v-.038c.623-1.091 2.026-3.566 4.11-7.677 2.69-5.3 5.28-11.925 5.28-11.925s.234 1.617 1.033 4.306c.468 1.579 1.442 3.313 2.221 4.988-.623.877-1.013 1.364-1.013 1.364l.02.02c-.507.662-1.053 1.383-1.657 2.085-2.123 2.533-4.656 5.436-5.007 6.274-.409.993-.311 1.714.468 2.299.565.428 1.578.487 2.61.428 1.91-.136 3.254-.603 3.917-.896 1.032-.37 2.24-.935 3.37-1.773 2.085-1.54 3.351-3.74 3.234-6.644-.058-1.598-.584-3.196-1.227-4.696.195-.273.37-.546.565-.818 3.293-4.813 5.845-10.093 5.845-10.093s.234 1.617 1.033 4.306c.39 1.364 1.188 2.845 1.89 4.286-3.098 2.514-5.008 5.437-5.69 7.346-1.227 3.546-.272 5.144 1.54 5.514.818.176 1.987-.214 2.844-.584a12.955 12.955 0 003.604-1.851c2.085-1.54 4.092-3.683 3.975-6.586-.058-1.325-.41-2.63-.896-3.897 2.63-1.091 6.02-1.695 10.345-1.189 9.274 1.092 11.106 6.879 10.755 9.314-.351 2.436-2.299 3.76-2.942 4.17-.643.409-.857.545-.799.838.078.428.39.409.935.33.76-.135 4.871-1.967 5.047-6.449.292-5.728-5.164-11.983-14.808-11.924zM20.307 70.11c-3.079 3.351-7.365 4.618-9.216 3.546-1.987-1.15-1.208-6.099 2.572-9.645 2.299-2.163 5.26-4.17 7.228-5.397.448-.273 1.11-.663 1.91-1.15a4.76 4.76 0 01.214-.117l.467-.292c1.384 5.066.059 9.528-3.175 13.055zm22.405-15.237c-1.072 2.61-3.312 9.294-4.676 8.924-1.169-.312-1.89-5.378-.234-10.386.838-2.513 2.611-5.514 3.644-6.683 1.675-1.87 3.526-2.494 3.974-1.734.565.994-2.046 8.242-2.708 9.879zm18.49 8.846c-.449.234-.877.39-1.072.273-.137-.078.195-.39.195-.39s2.318-2.494 3.234-3.624c.526-.663 1.15-1.442 1.812-2.319v.253c0 2.982-2.884 4.989-4.17 5.807zm14.261-3.254c-.331-.234-.273-1.013.838-3.449.428-.955 1.442-2.552 3.176-4.092.194.624.33 1.228.311 1.793-.02 3.76-2.708 5.163-4.325 5.748z" fill="#969BA8"/></svg>