<svg width="308" height="87" viewBox="0 0 308 87" fill="none" xmlns="http://www.w3.org/2000/svg">
<g clip-path="url(#clip0_48_239)">
<path d="M80.1765 0H94.1918V87H80.1765V0ZM143.245 59.247C143.245 72.5615 131.973 73.6229 128.62 73.6229C120.243 73.6229 118.718 65.8346 118.718 61.1366V27.84H104.703V61.067C104.703 69.3146 107.31 76.1215 111.879 80.6594C115.915 84.6719 121.963 86.8643 128.515 86.8643C133.161 86.8643 139.741 85.427 143.245 82.2498V87H157.26V27.84H143.245V59.247ZM185.291 6.96H171.276V27.84H160.764V41.76H171.276V87H185.291V41.76H195.802V27.84H185.291V6.96ZM239.94 69.3112C236.888 72.036 232.858 73.5463 228.437 73.5463C218.689 73.5463 211.531 66.4367 211.531 56.6753C211.531 46.9139 218.461 40.1035 228.437 40.1035C232.781 40.1035 236.888 41.5408 240.017 44.2656L242.144 46.0822L251.593 36.7001L249.228 34.5808C243.668 29.5939 236.285 26.796 228.433 26.796C210.914 26.796 198.192 39.3518 198.192 56.6022C198.192 73.7795 211.219 86.7842 228.433 86.7842C236.432 86.7842 243.892 83.9863 249.382 78.9194L251.667 76.8001L242.07 67.425L239.94 69.3112ZM301.617 32.9974C297.581 28.9884 292.851 26.796 286.299 26.796C281.653 26.796 276.39 28.2332 272.886 31.407V0H258.871V87H272.886V54.4098C272.886 41.0953 282.409 40.0374 285.762 40.0374C294.14 40.0374 293.909 47.8291 293.909 52.5202V87H307.924V52.5932C307.924 44.3456 306.19 37.5388 301.617 32.9974Z" fill="#093953"/>
<path d="M227.974 46.7642C230.662 46.7642 233.239 47.8245 235.139 49.7119C237.04 51.5993 238.107 54.1591 238.107 56.8283C238.107 59.4975 237.04 62.0574 235.139 63.9448C233.239 65.8322 230.662 66.8925 227.974 66.8925C225.287 66.8925 222.709 65.8322 220.809 63.9448C218.909 62.0574 217.841 59.4975 217.841 56.8283C217.841 54.1591 218.909 51.5993 220.809 49.7119C222.709 47.8245 225.287 46.7642 227.974 46.7642Z" fill="#FF3D2E"/>
<path d="M60.5552 65.1491C55.2259 70.5953 47.987 73.5463 40.3697 73.5463C24.7568 73.5463 13.4044 61.3664 13.4044 44.6484C13.4044 27.854 24.7568 15.674 40.3697 15.674C47.9134 15.674 55.0717 18.6215 60.4816 23.9946L62.6119 26.114L71.9811 16.8084L69.9244 14.6891C62.1564 6.74428 51.645 2.43604 40.3697 2.43604C17.3672 2.43604 0.0759583 20.5912 0.0759583 44.7215C0.0759583 68.7788 17.4443 86.8608 40.3697 86.8608C51.7221 86.8608 62.2335 82.476 70.0014 74.5312L72.0582 72.4119L62.7661 62.9567L60.5552 65.1491Z" fill="#093953"/>
</g>
<defs>
<clipPath id="clip0_48_239">
<rect width="308" height="87" fill="white"/>
</clipPath>
</defs>
</svg>
